Coordinates
version=1
nRows=21
nColumns=12
inDegrees=yes

Units are S.I. units (second, meters, Newtons, ...)
Angles are in degrees

endheader
time	SC_y	SC_z	SC_x	AC_y	AC_z	AC_x	GH_y	GH_z	GH_yy	EL_x	PS_y
       0.0              -24.29          39.17          50.02          54.26         -18.38          2.854          107.5         -13.13          39.47          8.963          102.8
  0.008411              -24.29          39.17          50.02          54.26         -18.38          2.853          107.5         -13.12          39.48          8.973          102.8
   0.01682              -24.29          39.16          50.01          54.27         -18.38          2.852          107.4          -13.1          39.48          8.984          102.8
   0.02523              -24.29          39.15           50.0          54.27         -18.37          2.851          107.4         -13.09          39.49          8.996          102.8
   0.03364              -24.29          39.15           50.0          54.27         -18.37          2.849          107.4         -13.07           39.5          9.009          102.7
   0.04205              -24.28          39.14          49.99          54.27         -18.36          2.848          107.3         -13.05           39.5          9.022          102.7
   0.05047              -24.28          39.13          49.98          54.27         -18.36          2.847          107.3         -13.04          39.51          9.037          102.7
   0.05888              -24.28          39.12          49.97          54.27         -18.36          2.845          107.2         -13.02          39.52          9.052          102.7
   0.06729              -24.28          39.11          49.97          54.27         -18.35          2.843          107.2          -13.0          39.52          9.069          102.7
    0.0757              -24.27           39.1          49.96          54.27         -18.35          2.842          107.1         -12.97          39.53          9.087          102.7
   0.08411              -24.27          39.09          49.95          54.28         -18.34           2.84          107.1         -12.95          39.54          9.106          102.6
   0.09252              -24.27          39.08          49.94          54.28         -18.34          2.838          107.0         -12.92          39.55          9.126          102.6
    0.1009              -24.26          39.07          49.92          54.28         -18.33          2.836          107.0          -12.9          39.56          9.148          102.6
    0.1093              -24.26          39.06          49.91          54.28         -18.32          2.833          106.9         -12.87          39.57          9.172          102.6
    0.1178              -24.25          39.04           49.9          54.28         -18.32          2.831          106.8         -12.83          39.58          9.198          102.6
    0.1262              -24.25          39.03          49.88          54.29         -18.31          2.828          106.7          -12.8          39.59          9.226          102.5
    0.1346              -24.24          39.01          49.87          54.29          -18.3          2.825          106.7         -12.76          39.61          9.257          102.5
     0.143              -24.24          38.99          49.85          54.29         -18.29          2.822          106.6         -12.72          39.62           9.29          102.5
    0.1514              -24.23          38.97          49.83          54.29         -18.28          2.818          106.5         -12.67          39.64          9.326          102.4
    0.1598              -24.23          38.95          49.81           54.3         -18.27          2.814          106.3         -12.62          39.66          9.366          102.4
    0.1682              -24.22          38.92          49.79           54.3         -18.26           2.81          106.2         -12.57          39.68           9.41          102.4
